<svg width="65" height="67" viewBox="0 0 65 67" fill="none" xmlns="http://www.w3.org/2000/svg">
<path d="M32.3217 0C32.3179 7.68441e-05 32.3141 0.000505661 32.3103 0.000505661L31.1344 2.05353C31.6096 1.96545 32.0625 1.91156 32.5009 1.91156C32.8186 1.91156 33.1449 1.94202 33.4788 1.98803L32.3217 0ZM32.5009 3.43842C31.7305 3.43842 30.9698 3.54556 30.1714 3.73426L28.7637 6.19183C30.2639 5.63682 31.4149 5.3594 32.5009 5.3594C33.4908 5.3594 34.5317 5.58998 35.842 6.04937L34.4418 3.64293C33.7831 3.50988 33.1466 3.43842 32.5009 3.43842ZM32.5009 6.88875C31.0125 6.88875 29.5396 7.28138 27.7446 7.97085L26.1805 10.7019C29.0993 9.42605 30.8713 8.80972 32.5009 8.80973C34.0659 8.80973 35.7427 9.36884 38.457 10.5426L36.8686 7.813C35.2401 7.21235 33.8882 6.88875 32.5009 6.88875ZM32.5009 10.3386C30.3649 10.3386 28.2929 11.1064 25.15 12.5008L23.5239 15.3396C28.1492 13.2424 30.4288 12.2596 32.5009 12.2596C34.5216 12.2596 36.771 13.211 41.1677 15.2016L39.5063 12.3459C36.5419 11.0414 34.5648 10.3386 32.5009 10.3386ZM32.5009 13.7889C29.8089 13.7889 27.3007 14.964 22.4979 17.1434C22.4941 17.1453 22.4921 17.1463 22.488 17.1482L20.8634 19.984C21.6241 19.6448 22.3835 19.3041 23.2917 18.892C28.0944 16.7126 30.3902 15.7102 32.501 15.7102C34.6118 15.7102 36.906 16.7126 41.7088 18.892C42.5224 19.2612 43.1904 19.5595 43.8844 19.8704L42.2255 17.0192C37.6221 14.9293 35.1348 13.7889 32.5009 13.7889ZM32.5009 17.2372C29.8089 17.2372 27.3007 18.4139 22.4979 20.5933C21.4872 21.0519 20.6415 21.4296 19.8314 21.7856L18.2613 24.5261C19.6662 23.9754 21.2446 23.2709 23.2916 22.342C28.0943 20.1626 30.3901 19.1582 32.5009 19.1582C34.6117 19.1582 36.906 20.1626 41.7087 22.342C43.6668 23.2305 45.1851 23.9051 46.5484 24.4481L44.9392 21.6828C44.1846 21.3496 43.4259 21.0123 42.5025 20.5933C37.6997 18.4139 35.1929 17.2372 32.5009 17.2372ZM32.5009 20.6216C29.8089 20.6216 27.3007 21.7967 22.4979 23.9761C20.2964 24.9751 18.6627 25.6982 17.2914 26.2197L15.8564 28.7249C17.7907 28.2301 19.9977 27.221 23.2916 25.7263C28.0943 23.5469 30.3901 22.5425 32.5009 22.5425C34.6117 22.5425 36.906 23.5469 41.7087 25.7263C44.9303 27.1882 47.113 28.1861 49.0179 28.6927L47.5392 26.1507C46.1971 25.6321 44.6202 24.9371 42.5025 23.9761C37.6997 21.7967 35.1929 20.6216 32.5009 20.6216ZM32.5009 24.0714C29.8089 24.0714 27.3007 25.2465 22.4979 27.4259C18.8505 29.081 16.6522 30.055 14.88 30.4295L13.6887 32.5088C16.2356 32.3986 18.7268 31.2475 23.2916 29.1761C28.0943 26.9968 30.3901 25.9929 32.5009 25.9929C34.6117 25.9929 36.906 26.9968 41.7087 29.1761C46.2276 31.2267 48.7161 32.3747 51.2367 32.5049L50.0161 30.4077C48.2616 30.017 46.0771 29.048 42.5025 27.4259C37.6997 25.2465 35.1929 24.0714 32.5009 24.0714ZM32.5009 27.5217C29.8089 27.5217 27.3007 28.6969 22.4979 30.8762C17.6951 33.0556 15.4009 34.06 13.2901 34.06C13.1348 34.06 12.9748 34.0426 12.8165 34.0317L11.7776 35.845C12.2851 35.9263 12.786 35.981 13.2901 35.981C15.982 35.981 18.4889 34.8038 23.2916 32.6245C28.0943 30.4451 30.3901 29.4427 32.5009 29.4427C34.6117 29.4427 36.906 30.4451 41.7087 32.6245C46.5115 34.8038 49.0203 35.981 51.7123 35.981C52.2029 35.981 52.6907 35.9285 53.184 35.8514L52.1272 34.0352C51.989 34.0438 51.8483 34.06 51.7123 34.06C49.6015 34.06 47.3052 33.0556 42.5025 30.8763C37.6997 28.6969 35.1929 27.5217 32.5009 27.5217ZM32.5009 30.9701C29.8089 30.9701 27.3007 32.1467 22.4979 34.3261C17.6951 36.5055 15.4009 37.5079 13.2901 37.5079C12.5877 37.5079 11.8551 37.3859 11.0261 37.1574L10.0363 38.8853C11.1918 39.2399 12.2292 39.4293 13.2901 39.4293C15.982 39.4293 18.4889 38.2542 23.2916 36.0748C28.0943 33.8954 30.3901 32.891 32.5009 32.891C34.6117 32.891 36.906 33.8954 41.7087 36.0748C46.5115 38.2542 49.0203 39.4293 51.7123 39.4293C52.7691 39.4293 53.8022 39.2417 54.9521 38.8898L53.9479 37.1649C53.1311 37.388 52.4067 37.5079 51.7123 37.5079C49.6015 37.5079 47.3052 36.5055 42.5025 34.3261C37.6997 32.1467 35.1929 30.9701 32.5009 30.9701ZM32.5009 34.4199C29.8089 34.4199 27.3007 35.595 22.4979 37.7744C17.6951 39.9538 15.4009 40.9582 13.2901 40.9582C12.1643 40.9582 10.9521 40.6481 9.36868 40.0508L8.39974 41.742C10.2545 42.4636 11.7667 42.8792 13.2901 42.8792C15.982 42.8792 18.4889 41.704 23.2916 39.5247C28.0943 37.3453 30.3901 36.3414 32.5009 36.3414C34.6117 36.3414 36.906 37.3453 41.7087 39.5247C46.5115 41.704 49.0203 42.8792 51.7123 42.8792C53.2377 42.8792 54.752 42.4626 56.61 41.739L55.6287 40.0528C54.0477 40.6491 52.8372 40.9582 51.7123 40.9582C49.6015 40.9582 47.3052 39.9538 42.5025 37.7744C37.6997 35.595 35.1929 34.4199 32.5009 34.4199ZM32.5009 37.8702C29.8089 37.8702 27.3007 39.0453 22.4979 41.2247C17.6951 43.4041 15.4009 44.408 13.2901 44.408C11.8184 44.408 10.2037 43.8851 7.76489 42.8509L6.79695 44.5401C9.47591 45.6979 11.3491 46.3295 13.2901 46.3295C15.982 46.3295 18.4889 45.1544 23.2916 42.975C28.0943 40.7956 30.3901 39.7912 32.5009 39.7912C34.6117 39.7912 36.906 40.7956 41.7087 42.975C46.5115 45.1544 49.0203 46.3295 51.7123 46.3295C53.6608 46.3295 55.5377 45.6953 58.2332 44.5286L57.2528 42.8439C54.8043 43.8834 53.1876 44.408 51.7123 44.408C49.6015 44.408 47.3052 43.4041 42.5025 41.2247C37.6997 39.0454 35.1929 37.8702 32.5009 37.8702ZM32.5009 41.2545C29.8089 41.2545 27.3007 42.4297 22.4979 44.6091C17.6951 46.7884 15.4009 47.7928 13.2901 47.7928C11.5343 47.7928 9.56005 47.0502 6.2117 45.5621L5.24974 47.2418C8.77334 48.8247 11.0095 49.7138 13.2901 49.7138C15.982 49.7138 18.4889 48.5387 23.2916 46.3593C28.0943 44.1799 30.3901 43.1755 32.5009 43.1755C34.6117 43.1755 36.906 44.1799 41.7087 46.3593C46.5115 48.5387 49.0203 49.7138 51.7123 49.7138C54.0029 49.7138 56.2481 48.8165 59.7993 47.22L58.8254 45.5457C55.4557 47.0445 53.4741 47.7928 51.7123 47.7928C49.6015 47.7928 47.3052 46.7884 42.5025 44.6091C37.6997 42.4297 35.1929 41.2545 32.5009 41.2545ZM32.5009 44.7048C29.8089 44.7048 27.3007 45.8795 22.4979 48.0589C17.6951 50.2383 15.4009 51.2427 13.2901 51.2427C11.2722 51.2427 9.02282 50.2934 4.63819 48.3086L3.67868 49.9838C8.20152 52.0373 10.6802 53.1641 13.2901 53.1641C15.982 53.1641 18.4889 51.987 23.2916 49.8076C28.0943 47.6282 30.3901 46.6258 32.5009 46.6258C34.6117 46.6258 36.906 47.6282 41.7087 49.8076C46.5115 51.987 49.0203 53.1641 51.7123 53.1641C54.3363 53.1641 56.8196 52.0285 61.3897 49.9536L60.4182 48.2832C55.993 50.2872 53.7395 51.2427 51.7123 51.2427C49.6015 51.2427 47.3052 50.2383 42.5025 48.0589C37.6997 45.8795 35.1929 44.7048 32.5009 44.7048ZM32.5009 48.1527C29.8089 48.1527 27.3007 49.3298 22.4979 51.5092C19.8033 52.732 17.9124 53.5718 16.3865 54.0844L21.4927 54.067C22.0822 53.8016 22.6188 53.5632 23.2916 53.2579C28.0943 51.0786 30.3901 50.0742 32.5009 50.0742C34.6117 50.0742 36.906 51.0786 41.7087 53.2579C42.3197 53.5352 42.8005 53.7482 43.3423 53.9926L48.2912 53.9757C46.821 53.4545 45.0064 52.6454 42.5025 51.5092C37.6997 49.3298 35.1929 48.1527 32.5009 48.1527ZM62.0101 51.0193C61.6341 51.1897 61.3277 51.3243 60.9201 51.5092C58.4574 52.6267 56.6593 53.4298 55.2023 53.9519L60.2078 53.935C60.7119 53.7073 61.1506 53.5135 61.7138 53.2579C62.1946 53.0397 62.5496 52.8854 62.9825 52.6906L62.0101 51.0193ZM3.06617 51.053L2.10567 52.7298C2.5117 52.9127 2.83931 53.0547 3.28705 53.2579C4.006 53.5842 4.5851 53.8415 5.20953 54.1221L10.2552 54.1052C8.71829 53.595 6.81151 52.7485 4.08026 51.5091C3.70095 51.337 3.41806 51.2125 3.06617 51.053ZM32.5009 51.603C30.229 51.603 28.0017 52.4853 24.5018 54.0566L29.681 54.0387C30.7507 53.6979 31.6461 53.524 32.5009 53.524C33.3411 53.524 34.2187 53.6908 35.2637 54.0199L40.3784 54.0025C36.9472 52.4647 34.7477 51.603 32.5009 51.603ZM63.6005 53.7523C63.4826 53.8046 63.3385 53.8704 63.2173 53.9246L63.6998 53.9226L63.6005 53.7523ZM1.49562 53.795L1.30054 54.1355L2.24514 54.1326C2.0001 54.0223 1.72794 53.8982 1.49562 53.795Z" fill="#AAEEFF"/>
<path d="M32.4474 8.19594C32.226 10.0161 29.791 19.7236 29.791 19.7236L31.7609 19.6517V36.7172L20.7025 43.0984L19.7801 41.6275L12.526 48.8826L11.4106 49.7823C13.0977 49.0639 22.7219 46.3184 22.7219 46.3184L21.8176 44.876L32.8101 38.5332L44.8574 45.4848L44.0416 47.0248L53.952 49.6797L55.2889 50.1956C53.8232 49.0939 46.6333 42.1315 46.6333 42.1315L45.8395 43.6299L33.8594 36.7173V19.5751L35.3249 19.5216L32.6685 9.61152L32.4474 8.19594Z" fill="white" stroke="#00AAD4" stroke-width="1.11001"/>
<path d="M0.45747 65.9946C0.321923 65.9946 0.210091 65.9505 0.121989 65.8624C0.0406623 65.7743 0 65.6659 0 65.5371C0 65.4829 0.0169399 65.4151 0.0508153 65.3338L2.6431 59.214C2.69734 59.092 2.77189 58.9937 2.86675 58.9192C2.96841 58.8378 3.09039 58.7972 3.23271 58.7972H3.33437C3.4767 58.7972 3.59529 58.8378 3.69017 58.9192C3.79183 58.9937 3.86976 59.092 3.92398 59.214L6.51626 65.3338C6.55014 65.4151 6.56707 65.4829 6.56707 65.5371C6.56707 65.6659 6.52303 65.7743 6.43493 65.8624C6.3536 65.9505 6.24515 65.9946 6.10961 65.9946C6.01473 65.9946 5.92664 65.9709 5.84531 65.9234C5.77076 65.8692 5.71314 65.798 5.67248 65.7099L5.0117 64.1241H1.55533L0.894552 65.7099C0.853888 65.798 0.792902 65.8692 0.711575 65.9234C0.637024 65.9709 0.552346 65.9946 0.45747 65.9946ZM1.91118 63.2803H4.65594L3.28356 59.9764L1.91118 63.2803Z" fill="#00AAD4"/>
<path d="M10.2979 66.0454C9.4372 66.0454 8.6307 65.8828 7.87843 65.5575C7.7971 65.5236 7.72933 65.4694 7.67511 65.3948C7.62087 65.3135 7.59375 65.2288 7.59375 65.1407C7.59375 65.0255 7.63102 64.9272 7.70557 64.8459C7.78689 64.7578 7.88856 64.7137 8.01055 64.7137C8.07832 64.7137 8.14271 64.7273 8.20371 64.7544C8.82721 65.0322 9.49475 65.1712 10.2064 65.1712C11.3924 65.1712 11.9854 64.7815 11.9854 64.0021C11.9854 63.7988 11.9074 63.6294 11.7516 63.4938C11.6025 63.3583 11.4161 63.2532 11.1924 63.1787C10.9688 63.0973 10.6503 63.0025 10.2369 62.894C9.68792 62.7517 9.24401 62.6162 8.90514 62.4874C8.56629 62.3519 8.27487 62.1519 8.03089 61.8876C7.78691 61.6233 7.66491 61.2709 7.66491 60.8304C7.66491 60.4441 7.76657 60.095 7.96989 59.7833C8.17321 59.4648 8.47141 59.214 8.86448 59.031C9.26434 58.8413 9.74212 58.7464 10.2979 58.7464C11.0433 58.7464 11.7177 58.8582 12.3208 59.0819C12.5106 59.1496 12.6055 59.2852 12.6055 59.4885C12.6055 59.5969 12.5682 59.6952 12.4937 59.7833C12.4191 59.8714 12.3208 59.9155 12.1989 59.9155C12.1582 59.9155 12.104 59.9019 12.0362 59.8748C11.5076 59.6918 10.962 59.6003 10.3995 59.6003C9.86411 59.6003 9.42698 59.702 9.08812 59.9053C8.75604 60.1086 8.59001 60.3932 8.59001 60.7592C8.59001 61.0032 8.66793 61.2031 8.82381 61.359C8.98646 61.5081 9.1864 61.6267 9.4236 61.7148C9.66758 61.7961 9.99627 61.8842 10.4097 61.9791C10.9451 62.1079 11.3754 62.2366 11.7007 62.3654C12.0328 62.4942 12.3141 62.6941 12.5445 62.9652C12.7817 63.2363 12.9003 63.6023 12.9003 64.0631C12.9003 64.4426 12.7919 64.7849 12.575 65.0898C12.3581 65.388 12.0532 65.6219 11.6601 65.7913C11.267 65.9607 10.813 66.0454 10.2979 66.0454Z" fill="#00AAD4"/>
<path d="M16.0519 65.9946C15.9231 65.9946 15.8147 65.9505 15.7266 65.8624C15.6385 65.7743 15.5944 65.6659 15.5944 65.5371V59.7121H13.5206C13.3986 59.7121 13.2969 59.6715 13.2156 59.5901C13.1343 59.5088 13.0936 59.4071 13.0936 59.2852C13.0936 59.1632 13.1343 59.0615 13.2156 58.9802C13.2969 58.8921 13.3986 58.848 13.5206 58.848H18.5832C18.7052 58.848 18.8068 58.8921 18.8881 58.9802C18.9762 59.0615 19.0203 59.1632 19.0203 59.2852C19.0203 59.4071 18.9762 59.5088 18.8881 59.5901C18.8068 59.6715 18.7052 59.7121 18.5832 59.7121H16.5195V65.5371C16.5195 65.6659 16.4721 65.7743 16.3772 65.8624C16.2891 65.9505 16.1806 65.9946 16.0519 65.9946Z" fill="#00AAD4"/>
<path d="M23.0357 66.0454C22.3241 66.0454 21.7006 65.8896 21.1652 65.5778C20.6298 65.2661 20.2164 64.8357 19.925 64.2867C19.6336 63.7378 19.4811 63.1075 19.4675 62.3959C19.4811 61.6843 19.6336 61.054 19.925 60.5051C20.2164 59.9561 20.6298 59.5258 21.1652 59.214C21.7006 58.9023 22.3241 58.7464 23.0357 58.7464C23.7473 58.7464 24.3675 58.9023 24.8961 59.214C25.4315 59.5258 25.8449 59.9595 26.1363 60.5152C26.4345 61.0642 26.5904 61.6911 26.6039 62.3959C26.5903 63.1007 26.4345 63.731 26.1363 64.2867C25.8449 64.8357 25.4315 65.2661 24.8961 65.5778C24.3675 65.8896 23.7473 66.0454 23.0357 66.0454ZM23.0357 65.1813C23.5779 65.1813 24.0489 65.0593 24.4488 64.8154C24.8486 64.5714 25.1536 64.2393 25.3637 63.8191C25.5738 63.3989 25.6788 62.9245 25.6788 62.3959C25.6788 61.8673 25.5738 61.3929 25.3637 60.9727C25.1536 60.5525 24.8486 60.2204 24.4488 59.9764C24.0489 59.7325 23.5779 59.6105 23.0357 59.6105C22.4868 59.6105 22.0124 59.7325 21.6125 59.9764C21.2194 60.2204 20.9179 60.5525 20.7078 60.9727C20.4977 61.3929 20.3926 61.8673 20.3926 62.3959C20.3926 62.9245 20.4977 63.3989 20.7078 63.8191C20.9179 64.2393 21.2194 64.5714 21.6125 64.8154C22.0124 65.0593 22.4868 65.1813 23.0357 65.1813Z" fill="#00AAD4"/>
<path d="M27.9761 65.9946C27.8406 65.9946 27.7288 65.9505 27.6407 65.8624C27.5593 65.7743 27.5187 65.6659 27.5187 65.5371C27.5187 65.4829 27.5356 65.4151 27.5695 65.3338L30.1618 59.214C30.216 59.092 30.2906 58.9937 30.3854 58.9192C30.4871 58.8378 30.6091 58.7972 30.7514 58.7972H30.853C30.9954 58.7972 31.114 58.8378 31.2088 58.9192C31.3105 58.9937 31.3884 59.092 31.4427 59.214L34.0349 65.3338C34.0688 65.4151 34.0858 65.4829 34.0858 65.5371C34.0858 65.6659 34.0417 65.7743 33.9536 65.8624C33.8723 65.9505 33.7638 65.9946 33.6283 65.9946C33.5334 65.9946 33.4453 65.9709 33.364 65.9234C33.2894 65.8692 33.2318 65.798 33.1912 65.7099L32.5304 64.1241H29.074L28.4132 65.7099C28.3726 65.798 28.3116 65.8692 28.2302 65.9234C28.1557 65.9709 28.071 65.9946 27.9761 65.9946ZM29.4298 63.2803H32.1746L30.8022 59.9764L29.4298 63.2803Z" fill="#00AAD4"/>
<path d="M36.0377 65.9946C35.9089 65.9946 35.8004 65.9505 35.7123 65.8624C35.6242 65.7743 35.5802 65.6659 35.5802 65.5371V59.3156C35.5802 59.1869 35.6242 59.0785 35.7123 58.9903C35.8004 58.8955 35.9089 58.848 36.0377 58.848H38.4063C39.328 58.848 40.0192 59.0378 40.4801 59.4173C40.9409 59.7968 41.1714 60.295 41.1714 60.9117C41.1714 61.3183 41.0562 61.6911 40.8257 62.0299C40.6021 62.362 40.2734 62.6026 39.8397 62.7517C40.3276 62.8805 40.6597 63.1854 40.8359 63.6666C41.0189 64.141 41.1104 64.6086 41.1104 65.0695V65.5371C41.1104 65.6659 41.0663 65.7743 40.9782 65.8624C40.8901 65.9505 40.7817 65.9946 40.6529 65.9946C40.5106 65.9946 40.3954 65.9539 40.3073 65.8726C40.226 65.7845 40.1853 65.6727 40.1853 65.5371V65.2322C40.1853 64.8933 40.1548 64.5815 40.0939 64.2969C40.0328 64.0055 39.8871 63.7479 39.6567 63.5243C39.4263 63.2939 39.0773 63.1787 38.6097 63.1787H36.5053V65.5371C36.5053 65.6659 36.4579 65.7743 36.363 65.8624C36.2749 65.9505 36.1664 65.9946 36.0377 65.9946ZM38.3453 62.3044C38.9281 62.3044 39.389 62.1892 39.7278 61.9588C40.0735 61.7283 40.2463 61.403 40.2463 60.9828C40.2463 60.5762 40.0972 60.2645 39.799 60.0476C39.5076 59.8307 39.0061 59.7223 38.2945 59.7223H36.5053V62.3044H38.3453Z" fill="#00AAD4"/>
<path d="M45.9189 65.9438C45.7901 65.9438 45.6817 65.8997 45.5936 65.8116C45.5055 65.7235 45.4614 65.6151 45.4614 65.4863V59.3156C45.4614 59.1869 45.5055 59.0785 45.5936 58.9903C45.6817 58.8955 45.7901 58.848 45.9189 58.848H47.9622C48.7348 58.848 49.3888 59.0208 49.9242 59.3665C50.4664 59.7053 50.873 60.1459 51.1441 60.688C51.4152 61.2302 51.5507 61.7995 51.5507 62.3959C51.5507 62.9923 51.4152 63.5616 51.1441 64.1037C50.873 64.6459 50.4664 65.0898 49.9242 65.4355C49.3888 65.7743 48.7348 65.9438 47.9622 65.9438H45.9189ZM47.8504 65.0797C48.4061 65.0797 48.8941 64.9678 49.3142 64.7442C49.7344 64.5138 50.0598 64.1986 50.2902 63.7988C50.5206 63.3921 50.6358 62.9245 50.6358 62.3959C50.6358 61.8673 50.5206 61.403 50.2902 61.0032C50.0598 60.5965 49.7344 60.2814 49.3142 60.0578C48.8941 59.8273 48.4061 59.7121 47.8504 59.7121H46.3865V65.0797H47.8504Z" fill="#00AAD4"/>
<path d="M56.227 66.0454C55.5493 66.0454 54.9393 65.8997 54.3971 65.6083C53.8617 65.3101 53.4382 64.8865 53.1264 64.3376C52.8214 63.7818 52.6689 63.1346 52.6689 62.3959C52.6689 61.6572 52.8214 61.0134 53.1264 60.4644C53.4382 59.9087 53.8617 59.4851 54.3971 59.1937C54.9393 58.8955 55.5493 58.7464 56.227 58.7464C56.6878 58.7464 57.0979 58.8006 57.457 58.909C57.823 59.0175 58.1856 59.1733 58.5448 59.3767C58.6939 59.458 58.7684 59.5868 58.7684 59.763C58.7684 59.8646 58.7311 59.9561 58.6566 60.0374C58.582 60.112 58.4838 60.1493 58.3618 60.1493C58.294 60.1493 58.233 60.1357 58.1788 60.1086C57.8806 59.9527 57.5892 59.8341 57.3046 59.7528C57.0199 59.6715 56.6912 59.6308 56.3185 59.6308C55.7356 59.6308 55.2375 59.7528 54.8241 59.9968C54.4175 60.234 54.1091 60.5627 53.899 60.9829C53.6957 61.3963 53.594 61.8673 53.594 62.3959C53.594 62.9245 53.6957 63.3989 53.899 63.8191C54.1091 64.2325 54.4175 64.5612 54.8241 64.8052C55.2375 65.0424 55.7356 65.161 56.3185 65.161C56.6912 65.161 57.0199 65.1203 57.3046 65.039C57.5892 64.9577 57.8806 64.8391 58.1788 64.6832C58.233 64.6561 58.294 64.6426 58.3618 64.6426C58.4838 64.6426 58.582 64.6798 58.6566 64.7544C58.7311 64.8289 58.7684 64.9204 58.7684 65.0289C58.7684 65.2051 58.6939 65.3338 58.5448 65.4152C58.1856 65.6185 57.823 65.7743 57.457 65.8828C57.0979 65.9912 56.6878 66.0454 56.227 66.0454Z" fill="#00AAD4"/>
<path d="M62.3975 66.0454C61.5368 66.0454 60.7303 65.8828 59.978 65.5575C59.8967 65.5236 59.8289 65.4694 59.7747 65.3948C59.7205 65.3135 59.6934 65.2288 59.6934 65.1407C59.6934 65.0255 59.7306 64.9272 59.8052 64.8459C59.8865 64.7578 59.9882 64.7137 60.1101 64.7137C60.1779 64.7137 60.2423 64.7273 60.3033 64.7544C60.9268 65.0322 61.5944 65.1712 62.306 65.1712C63.492 65.1712 64.085 64.7815 64.085 64.0021C64.085 63.7988 64.007 63.6294 63.8512 63.4938C63.7021 63.3583 63.5157 63.2532 63.2921 63.1787C63.0684 63.0973 62.7499 63.0025 62.3365 62.894C61.7875 62.7517 61.3436 62.6162 61.0047 62.4874C60.6659 62.3519 60.3745 62.1519 60.1305 61.8876C59.8865 61.6233 59.7645 61.2709 59.7645 60.8304C59.7645 60.4441 59.8662 60.095 60.0695 59.7833C60.2728 59.4648 60.571 59.214 60.9641 59.031C61.3639 58.8413 61.8417 58.7464 62.3975 58.7464C63.143 58.7464 63.8173 58.8582 64.4205 59.0819C64.6102 59.1496 64.7051 59.2852 64.7051 59.4885C64.7051 59.5969 64.6678 59.6952 64.5933 59.7833C64.5187 59.8714 64.4204 59.9155 64.2985 59.9155C64.2578 59.9155 64.2036 59.9019 64.1358 59.8748C63.6072 59.6918 63.0616 59.6003 62.4991 59.6003C61.9637 59.6003 61.5266 59.702 61.1877 59.9053C60.8556 60.1086 60.6896 60.3932 60.6896 60.7592C60.6896 61.0032 60.7675 61.2031 60.9234 61.359C61.0861 61.5081 61.286 61.6267 61.5232 61.7148C61.7672 61.7961 62.0959 61.8842 62.5093 61.9791C63.0447 62.1079 63.475 62.2366 63.8003 62.3654C64.1324 62.4942 64.4137 62.6941 64.6441 62.9652C64.8813 63.2363 64.9999 63.6023 64.9999 64.0631C64.9999 64.4426 64.8915 64.7849 64.6746 65.0898C64.4577 65.388 64.1527 65.6219 63.7597 65.7913C63.3666 65.9607 62.9126 66.0454 62.3975 66.0454Z" fill="#00AAD4"/>
</svg>
