<svg width="24" height="24" viewBox="0 0 24 24" fill="none" xmlns="http://www.w3.org/2000/svg">
<path d="M14.25 18V16.875C14.25 15.5156 15.7285 14.2298 16.6875 13.3125C18.0394 12.0202 18.75 10.2839 18.75 8.25C18.75 4.5 15.7627 1.5 12 1.5C11.1129 1.49752 10.2341 1.67043 9.41399 2.00877C8.59392 2.34712 7.84883 2.84422 7.22154 3.47151C6.59425 4.0988 6.09714 4.8439 5.7588 5.66396C5.42046 6.48403 5.24755 7.36288 5.25003 8.25C5.25003 10.2113 5.99112 12.0652 7.31253 13.3125C8.26643 14.213 9.75003 15.5016 9.75003 16.875V18M10.5 22.5H13.5M9.75003 20.25H14.25M12 18V12" stroke="white" stroke-width="1.5" stroke-linecap="round" stroke-linejoin="round"/>
<path d="M13.7812 11.25C13.7812 11.25 12.773 12 12 12C11.227 12 10.2188 11.25 10.2188 11.25" stroke="white" stroke-width="1.5" stroke-linecap="round" stroke-linejoin="round"/>
</svg>
